<svg width="207" height="89" viewBox="0 0 207 89" fill="none" xmlns="http://www.w3.org/2000/svg">
<path d="M0 67.8832H2.00061L4.74454 79.4468L4.99262 80.5431H5.07501L5.40548 79.4468L8.76822 67.8832H10.6247L13.8638 79.4468L14.1943 80.5431H14.2767L17.2472 67.8832H19.2281L15.1642 83.6391H13.3077L10.0892 72.2472L9.7381 71.0006H9.65571L9.30465 72.2472L5.9625 83.6391H4.10607L0 67.8832Z" fill="white"/>
<path d="M21.7435 83.2299C20.9187 82.7139 20.2784 82.0048 19.8253 81.1025C19.3712 80.1993 19.1447 79.1819 19.1447 78.0505C19.1447 76.919 19.3581 75.966 19.7841 75.0628C20.2241 74.1312 20.8363 73.4006 21.6199 72.87C22.4316 72.3257 23.3462 72.0536 24.3638 72.0536C25.3815 72.0536 26.3101 72.3043 27.1078 72.8056C27.8782 73.2933 28.469 73.9664 28.8818 74.8267C29.3078 75.7153 29.5212 76.7112 29.5212 77.8144C29.5212 77.9002 29.5072 78.0865 29.48 78.3733H20.9393C20.9805 79.2327 21.1799 79.9574 21.5375 80.5446C21.8811 81.1035 22.3286 81.5405 22.8781 81.8556C23.4145 82.156 23.9781 82.3072 24.5698 82.3072C25.9731 82.3072 27.0385 81.6273 27.7678 80.2656L29.2741 81.0391C28.82 81.9414 28.1937 82.6583 27.397 83.189C26.5994 83.7186 25.6361 83.9839 24.5089 83.9839C23.4632 83.9839 22.542 83.7332 21.7444 83.2319L21.7435 83.2299ZM27.6021 76.8458C27.588 76.3727 27.4644 75.8997 27.2304 75.4276C27.0104 74.9691 26.6593 74.575 26.1781 74.2454C25.6969 73.9157 25.0912 73.7508 24.3629 73.7508C23.5381 73.7508 22.8154 74.0376 22.1966 74.6102C21.619 75.1544 21.2333 75.8997 21.0413 76.8458H27.6011H27.6021Z" fill="white"/>
<path d="M34.8641 83.4021C34.2312 83.0295 33.7425 82.5564 33.399 81.9838H33.296V83.6391H31.6043V67.8832H33.399V72.5262L33.296 74.0956H33.399C33.7294 73.5084 34.2172 73.0285 34.8641 72.6549C35.5512 72.254 36.288 72.0531 37.0716 72.0531C38.034 72.0531 38.9074 72.3116 39.6919 72.8266C40.4624 73.3426 41.0812 74.0595 41.5484 74.9764C42.0024 75.8787 42.229 76.897 42.229 78.0285C42.229 79.16 42.0024 80.1998 41.5484 81.102C41.0943 82.0043 40.4755 82.7144 39.6919 83.2294C38.9355 83.7308 38.062 83.9815 37.0716 83.9815C36.2599 83.9815 35.5241 83.7883 34.8641 83.4011V83.4021ZM38.6397 81.7682C39.1621 81.4532 39.5955 80.9518 39.9391 80.2632C40.2695 79.6184 40.4343 78.8732 40.4343 78.0275C40.4343 77.1818 40.2695 76.4152 39.9391 75.7704C39.5955 75.111 39.1621 74.6175 38.6397 74.2868C38.062 73.9288 37.4769 73.7493 36.8862 73.7493C36.2955 73.7493 35.6757 73.9288 35.1122 74.2868C34.5757 74.6311 34.1423 75.1247 33.8127 75.7704C33.4692 76.4444 33.2969 77.1965 33.2969 78.0275C33.2969 78.8586 33.4682 79.5892 33.8127 80.2632C34.1563 80.9226 34.5898 81.4239 35.1122 81.7682C35.6757 82.1262 36.2674 82.3057 36.8862 82.3057C37.505 82.3057 38.062 82.1272 38.6397 81.7682Z" fill="white"/>
<path d="M45.0554 83.1441C44.313 82.6144 43.7691 81.8907 43.4255 80.9728L45.0142 80.2208C45.2895 80.9084 45.6883 81.4322 46.2107 81.7902C46.7602 82.1628 47.3453 82.3491 47.9641 82.3491C48.6382 82.3491 49.2158 82.2057 49.697 81.919C50.1782 81.6322 50.4188 81.2245 50.4188 80.6938C50.4188 80.2208 50.2259 79.8413 49.8412 79.5545C49.4835 79.2824 48.8853 79.0386 48.0465 78.824L46.7265 78.4582C45.8736 78.2436 45.1724 77.871 44.622 77.3404C44.0715 76.8107 43.7972 76.1299 43.7972 75.2978C43.7972 74.6677 43.9826 74.102 44.3542 73.5996C44.739 73.0983 45.2342 72.7178 45.8399 72.4603C46.4999 72.1882 47.174 72.0516 47.8621 72.0516C48.7973 72.0516 49.6361 72.2662 50.3785 72.6964C51.1078 73.1119 51.6302 73.7069 51.9466 74.4804L50.3991 75.2325C49.9179 74.2297 49.0651 73.7274 47.8405 73.7274C47.2629 73.7274 46.7405 73.8708 46.2724 74.1576C45.8324 74.4297 45.6124 74.7955 45.6124 75.2539C45.6124 75.6548 45.7707 75.9845 46.0871 76.243C46.4035 76.5005 46.8641 76.7161 47.4689 76.8878L49.037 77.2965C50.1098 77.5832 50.9075 77.9988 51.4298 78.543C51.9663 79.102 52.234 79.776 52.234 80.5631C52.234 81.2371 52.0412 81.839 51.6564 82.3686C51.2847 82.8846 50.7689 83.2855 50.1089 83.5723C49.4901 83.8444 48.7748 83.981 47.9632 83.981C46.8079 83.981 45.8381 83.702 45.0545 83.1431L45.0554 83.1441Z" fill="white"/>
<path d="M55.1435 70.5686C54.8 70.5686 54.4967 70.433 54.2355 70.1599C53.9743 69.8878 53.8432 69.5727 53.8432 69.2138C53.8432 68.8548 53.9733 68.5193 54.2355 68.2462C54.4695 68.0023 54.7719 67.8804 55.1435 67.8804C55.5152 67.8804 55.8176 68.0023 56.0516 68.2462C56.2997 68.5037 56.4233 68.8265 56.4233 69.2138C56.4233 69.601 56.2997 69.9014 56.0516 70.1599C55.7904 70.4321 55.4871 70.5686 55.1435 70.5686ZM54.2561 72.417H56.0507V83.6373H54.2561V72.417Z" fill="white"/>
<path d="M61.6634 83.5959C61.2786 83.4389 60.9688 83.238 60.7347 82.9941C60.1702 82.4352 59.8894 81.6685 59.8894 80.6941V74.1168H58.0123V72.4186H59.8894V69.2378H61.684V72.4186H64.325V74.1168H61.684V80.221C61.684 80.8521 61.7935 81.3105 62.0145 81.5963C62.2757 81.9114 62.6679 82.0694 63.1903 82.0694C63.6444 82.0694 64.0357 81.9475 64.3662 81.7036V83.5306C64.1733 83.6311 63.9608 83.7023 63.7267 83.7461C63.5067 83.7891 63.225 83.8105 62.8814 83.8105C62.4273 83.8105 62.022 83.7383 61.6644 83.5959H61.6634Z" fill="white"/>
<path d="M68.0168 83.2299C67.1921 82.7139 66.5517 82.0048 66.0986 81.1025C65.6446 80.1993 65.418 79.1819 65.418 78.0505C65.418 76.919 65.6315 75.966 66.0574 75.0628C66.4974 74.1312 67.1097 73.4006 67.8933 72.87C68.7049 72.3257 69.6196 72.0536 70.6372 72.0536C71.6548 72.0536 72.5835 72.3043 73.3811 72.8056C74.1516 73.2933 74.7423 73.9664 75.1552 74.8267C75.5811 75.7153 75.7946 76.7112 75.7946 77.8144C75.7946 77.9002 75.7806 78.0865 75.7534 78.3733H67.2127C67.2539 79.2327 67.4533 79.9574 67.8109 80.5446C68.1545 81.1035 68.602 81.5405 69.1515 81.8556C69.6879 82.156 70.2515 82.3072 70.8432 82.3072C72.2465 82.3072 73.3119 81.6273 74.0411 80.2656L75.5474 81.0391C75.0934 81.9414 74.4671 82.6583 73.6704 83.189C72.8728 83.7186 71.9095 83.9839 70.7823 83.9839C69.7366 83.9839 68.8154 83.7332 68.0178 83.2319L68.0168 83.2299ZM73.8754 76.8458C73.8614 76.3727 73.7378 75.8997 73.5038 75.4276C73.2838 74.9691 72.9327 74.575 72.4515 74.2454C71.9703 73.9157 71.3646 73.7508 70.6363 73.7508C69.8115 73.7508 69.0888 74.0376 68.47 74.6102C67.8923 75.1544 67.5066 75.8997 67.3147 76.8458H73.8745H73.8754Z" fill="white"/>
<path d="M84.8297 83.2088C84.018 82.6928 83.372 81.9837 82.8899 81.0805C82.4218 80.1919 82.1887 79.1745 82.1887 78.0284C82.1887 76.8823 82.4228 75.8649 82.8899 74.9763C83.3852 74.0448 84.0311 73.3288 84.8297 72.8265C85.6544 72.3105 86.5897 72.053 87.6354 72.053C88.7766 72.053 89.7605 72.3398 90.5853 72.9123C91.3829 73.4712 91.9465 74.2233 92.2769 75.1694L90.6471 75.8786C90.3718 75.1626 89.9796 74.632 89.4712 74.2877C88.9488 73.9297 88.3085 73.7502 87.553 73.7502C86.9202 73.7502 86.3285 73.9297 85.779 74.2877C85.2285 74.6456 84.7885 75.147 84.4589 75.7927C84.1285 76.4375 83.9637 77.1827 83.9637 78.0284C83.9637 78.8741 84.1285 79.5969 84.4589 80.2426C84.7894 80.8873 85.2294 81.3897 85.779 81.7477C86.3425 82.1203 86.9342 82.3066 87.553 82.3066C88.2954 82.3066 88.9488 82.1203 89.5134 81.7477C90.0629 81.3897 90.4757 80.8659 90.751 80.1782L92.3397 80.8873C91.968 81.8042 91.3838 82.5494 90.5862 83.123C89.7886 83.6956 88.8047 83.9823 87.6363 83.9823C86.5906 83.9823 85.6563 83.7238 84.8306 83.2088H84.8297Z" fill="white"/>
<path d="M94.2988 67.8827H96.0935V72.5257L95.9905 74.0737H96.0935C96.3687 73.5148 96.8359 73.0348 97.4959 72.6339C98.1287 72.2467 98.8299 72.0536 99.6004 72.0536C100.906 72.0536 101.904 72.4545 102.591 73.2572C103.279 74.06 103.623 75.1203 103.623 76.4381V83.6386H101.828V76.717C101.828 75.7143 101.581 74.9691 101.086 74.4814C100.605 73.9947 99.9646 73.7508 99.1679 73.7508C98.6314 73.7508 98.1156 73.9303 97.6204 74.2883C97.1523 74.6326 96.7816 75.0832 96.5063 75.6421C96.2311 76.2157 96.0935 76.7961 96.0935 77.3833V83.6376H94.2988V67.8817V67.8827Z" fill="white"/>
<path d="M107.13 82.7999C106.442 81.9972 106.098 80.8871 106.098 79.4679V72.4176H107.893V79.188C107.893 80.2775 108.127 81.0656 108.594 81.5524C109.075 82.0537 109.701 82.3044 110.471 82.3044C111.076 82.3044 111.619 82.1328 112.101 81.7884C112.555 81.4587 112.919 81.0218 113.195 80.4775C113.456 79.9478 113.587 79.3743 113.587 78.7578V72.4166H115.382V83.6368H113.669V82.003H113.587C113.312 82.5473 112.837 83.0204 112.163 83.4213C111.544 83.7939 110.856 83.9802 110.1 83.9802C108.793 83.9802 107.802 83.5861 107.129 82.798L107.13 82.7999Z" fill="white"/>
<path d="M119.364 83.5091C118.731 83.1794 118.25 82.7356 117.92 82.1766C117.589 81.6177 117.424 80.973 117.424 80.2424C117.424 79.0534 117.85 78.1287 118.703 77.4693C119.583 76.7962 120.67 76.4587 121.963 76.4587C122.637 76.4587 123.242 76.5309 123.778 76.6733C124.328 76.8167 124.748 76.9884 125.036 77.1893V76.5017C125.036 75.6852 124.761 75.018 124.212 74.503C123.661 73.987 122.946 73.7295 122.066 73.7295C121.474 73.7295 120.924 73.8661 120.415 74.1382C119.879 74.425 119.474 74.8044 119.198 75.2775L117.837 74.2241C118.25 73.5657 118.834 73.035 119.591 72.6332C120.333 72.2459 121.159 72.0528 122.066 72.0528C123.523 72.0528 124.672 72.4537 125.511 73.2564C126.336 74.0446 126.749 75.1341 126.749 76.5231V83.6378H125.036V82.0254H124.954C124.638 82.5844 124.177 83.0506 123.572 83.4222C122.981 83.7949 122.279 83.9812 121.468 83.9812C120.656 83.9812 119.969 83.8231 119.363 83.5081L119.364 83.5091ZM119.24 70.4404L121.386 67.8829H122.975L125.162 70.4404V70.5477H123.429L122.253 69.3011H122.088L120.974 70.5477H119.241V70.4404H119.24ZM123.346 81.8538C123.868 81.5241 124.281 81.0949 124.583 80.5643C124.886 80.0346 125.037 79.4396 125.037 78.7802C124.708 78.551 124.295 78.3579 123.8 78.1999C123.332 78.0565 122.809 77.9853 122.232 77.9853C121.241 77.9853 120.499 78.1999 120.003 78.63C119.508 79.0602 119.261 79.6045 119.261 80.2638C119.261 80.8803 119.489 81.3817 119.942 81.7689C120.396 82.1562 120.966 82.3493 121.654 82.3493C122.259 82.3493 122.822 82.1844 123.346 81.8547V81.8538ZM124.48 67.0655C124.906 66.4929 125.12 66.0842 125.12 65.8403C125.12 65.5828 125.044 65.3887 124.892 65.26C124.741 65.1312 124.549 65.0668 124.315 65.0668C124.039 65.0668 123.799 65.1176 123.593 65.2171V63.8846C123.964 63.8134 124.259 63.7773 124.48 63.7773C125.113 63.7773 125.615 63.9354 125.987 64.2504C126.33 64.5508 126.502 64.9956 126.502 65.5828C126.502 65.9837 126.385 66.371 126.151 66.7436C125.917 67.1162 125.594 67.4956 125.181 67.8829L124.48 67.0664V67.0655Z" fill="white"/>
<path d="M129.246 72.4184H130.938V74.0737H131.041C131.329 73.5148 131.797 73.0417 132.443 72.6554C133.103 72.2545 133.798 72.0536 134.527 72.0536C135.82 72.0536 136.803 72.4477 137.477 73.2358C138.164 74.0386 138.508 75.1057 138.508 76.4381V83.6386H136.714V76.7171C136.714 75.6851 136.473 74.933 135.992 74.4599C135.524 73.9869 134.87 73.7508 134.032 73.7508C133.454 73.7508 132.938 73.9225 132.484 74.2668C132.003 74.6394 131.645 75.0832 131.411 75.5992C131.164 76.1581 131.04 76.7317 131.04 77.3189V83.6386H129.245V72.4184H129.246Z" fill="white"/>
<path d="M146.327 67.8832H148.122V83.6391H146.327V67.8832Z" fill="white"/>
<path d="M151.134 72.4184H152.826V74.0737H152.929C153.217 73.5148 153.685 73.0417 154.331 72.6554C154.991 72.2545 155.686 72.0536 156.415 72.0536C157.708 72.0536 158.691 72.4477 159.365 73.2358C160.052 74.0386 160.396 75.1057 160.396 76.4381V83.6386H158.602V76.7171C158.602 75.6851 158.361 74.933 157.88 74.4599C157.412 73.9869 156.758 73.7508 155.92 73.7508C155.342 73.7508 154.826 73.9225 154.372 74.2668C153.891 74.6394 153.533 75.0832 153.299 75.5992C153.052 76.1581 152.928 76.7317 152.928 77.3189V83.6386H151.133V72.4184H151.134Z" fill="white"/>
<path d="M163.718 83.1441C162.976 82.6144 162.432 81.8907 162.088 80.9728L163.677 80.2208C163.952 80.9084 164.351 81.4322 164.873 81.7902C165.423 82.1628 166.008 82.3491 166.627 82.3491C167.301 82.3491 167.879 82.2057 168.36 81.919C168.841 81.6322 169.081 81.2245 169.081 80.6938C169.081 80.2208 168.889 79.8413 168.504 79.5545C168.146 79.2824 167.548 79.0386 166.709 78.824L165.389 78.4582C164.536 78.2436 163.835 77.871 163.285 77.3404C162.734 76.8107 162.46 76.1299 162.46 75.2978C162.46 74.6677 162.645 74.102 163.017 73.5996C163.402 73.0983 163.897 72.7178 164.503 72.4603C165.163 72.1882 165.837 72.0516 166.525 72.0516C167.46 72.0516 168.299 72.2662 169.041 72.6964C169.771 73.1119 170.293 73.7069 170.609 74.4804L169.062 75.2325C168.581 74.2297 167.728 73.7274 166.503 73.7274C165.926 73.7274 165.403 73.8708 164.935 74.1576C164.495 74.4297 164.275 74.7955 164.275 75.2539C164.275 75.6548 164.433 75.9845 164.75 76.243C165.066 76.5005 165.527 76.7161 166.132 76.8878L167.7 77.2965C168.773 77.5832 169.57 77.9988 170.093 78.543C170.629 79.102 170.897 79.776 170.897 80.5631C170.897 81.2371 170.704 81.839 170.319 82.3686C169.947 82.8846 169.432 83.2855 168.772 83.5723C168.153 83.8444 167.438 83.981 166.626 83.981C165.471 83.981 164.501 83.702 163.717 83.1431L163.718 83.1441Z" fill="white"/>
<path d="M173.807 70.57C173.463 70.57 173.16 70.4344 172.899 70.1613C172.638 69.8891 172.506 69.5741 172.506 69.2151C172.506 68.8562 172.637 68.5206 172.899 68.2475C173.133 68.0036 173.435 67.8817 173.807 67.8817C174.178 67.8817 174.481 68.0036 174.715 68.2475C174.963 68.505 175.087 68.8279 175.087 69.2151C175.087 69.6024 174.963 69.9028 174.715 70.1613C174.454 70.4334 174.15 70.57 173.807 70.57ZM172.919 72.4184H174.714V83.6386H172.919V72.4184Z" fill="white"/>
<path d="M179.005 87.83C178.18 87.2135 177.623 86.4683 177.334 85.5943L178.984 84.8637C179.218 85.5231 179.61 86.0528 180.16 86.4547C180.71 86.8555 181.37 87.0565 182.14 87.0565C183.24 87.0565 184.101 86.72 184.719 86.046C185.338 85.3866 185.648 84.4268 185.648 83.1655V81.919H185.566C185.222 82.4779 184.727 82.9441 184.08 83.3158C183.447 83.6737 182.719 83.8532 181.893 83.8532C180.958 83.8532 180.105 83.6025 179.335 83.1012C178.579 82.6144 177.974 81.919 177.52 81.0167C177.066 80.1144 176.84 79.0971 176.84 77.9646C176.84 76.8322 177.066 75.8148 177.52 74.9125C177.987 73.9956 178.593 73.2933 179.335 72.8056C180.105 72.3043 180.958 72.0536 181.893 72.0536C182.718 72.0536 183.447 72.2331 184.08 72.591C184.712 72.949 185.207 73.4289 185.566 74.0317H185.648V72.4194H187.36V83.2094C187.36 85.0003 186.879 86.3766 185.916 87.3364C184.967 88.2826 183.708 88.7547 182.14 88.7547C180.861 88.7547 179.816 88.4465 179.005 87.83ZM183.895 81.6605C184.431 81.3171 184.857 80.8294 185.173 80.1993C185.49 79.5692 185.648 78.824 185.648 77.9636C185.648 77.1033 185.49 76.3162 185.173 75.6851C184.857 75.0403 184.431 74.5604 183.895 74.2454C183.344 73.9157 182.76 73.7508 182.141 73.7508C181.522 73.7508 180.904 73.9225 180.367 74.2668C179.817 74.6248 179.391 75.1047 179.088 75.7065C178.772 76.3376 178.614 77.0897 178.614 77.9636C178.614 78.8376 178.772 79.5614 179.088 80.2208C179.391 80.8519 179.817 81.3318 180.367 81.6605C180.917 81.9902 181.508 82.155 182.141 82.155C182.774 82.155 183.385 81.9902 183.895 81.6605Z" fill="white"/>
<path d="M190.021 67.8827H191.815V72.5257L191.712 74.0737H191.815C192.091 73.5148 192.558 73.0348 193.218 72.6339C193.851 72.2467 194.552 72.0536 195.322 72.0536C196.628 72.0536 197.626 72.4545 198.313 73.2572C199.001 74.06 199.345 75.1203 199.345 76.4381V83.6386H197.55V76.717C197.55 75.7143 197.303 74.9691 196.808 74.4814C196.327 73.9947 195.686 73.7508 194.89 73.7508C194.353 73.7508 193.838 73.9303 193.342 74.2883C192.874 74.6326 192.503 75.0832 192.228 75.6421C191.953 76.2157 191.815 76.7961 191.815 77.3833V83.6376H190.021V67.8817V67.8827Z" fill="white"/>
<path d="M204.297 83.5959C203.912 83.4389 203.603 83.238 203.369 82.9941C202.804 82.4352 202.523 81.6685 202.523 80.6941V74.1168H200.646V72.4186H202.523V69.2378H204.318V72.4186H206.959V74.1168H204.318V80.221C204.318 80.8521 204.427 81.3105 204.648 81.5963C204.909 81.9114 205.302 82.0694 205.824 82.0694C206.278 82.0694 206.669 81.9475 207 81.7036V83.5306C206.807 83.6311 206.595 83.7023 206.361 83.7461C206.141 83.7891 205.859 83.8105 205.515 83.8105C205.061 83.8105 204.656 83.7383 204.298 83.5959H204.297Z" fill="white"/>
<path d="M92.173 48.3451V48.3435" stroke="#179900" stroke-width="0.0512638" stroke-miterlimit="10"/>
<path d="M50.2769 48.3441H50.2752" stroke="#179900" stroke-width="0.0512638" stroke-miterlimit="10"/>
<path d="M92.1748 48.3441H92.173" stroke="#179900" stroke-width="0.0512638" stroke-miterlimit="10"/>
<path d="M168.67 13.421V33.0581C168.67 39.1467 165.253 44.4042 160.308 46.8622C158.398 47.8123 156.259 48.3439 154 48.3439C151.741 48.3439 149.614 47.8152 147.708 46.871C142.753 44.4169 139.329 39.1545 139.329 33.0581V13.421H147.708V33.0679C147.708 36.6925 150.529 39.6315 154.009 39.6315C157.489 39.6315 160.308 36.6925 160.308 33.0679V13.421H168.67Z" fill="white"/>
<path d="M190.26 13.4214C187.207 13.4214 184.345 14.2739 181.88 15.7634V1.60522H173.519V30.8824C173.519 37.3416 176.881 42.9814 181.88 46.0023C184.345 47.4918 187.207 48.3443 190.26 48.3443C199.505 48.3443 207 40.5263 207 30.8824C207 21.2384 199.505 13.4214 190.26 13.4214ZM190.26 39.6319C185.632 39.6319 181.88 35.7234 181.88 30.9019C181.88 26.0804 185.632 22.1709 190.26 22.1709C194.888 22.1709 198.639 26.0804 198.639 30.9019C198.639 35.7234 194.887 39.6319 190.26 39.6319Z" fill="white"/>
<path d="M44.8587 24.9743C44.8587 37.881 34.8173 48.3443 22.4298 48.3443C10.0424 48.3443 0 37.881 0 24.9743C0 20.7722 1.06443 16.8286 2.92836 13.4214C6.78821 6.36428 14.0754 1.60522 22.4298 1.60522C30.7843 1.60522 38.0714 6.36428 41.9304 13.4214C43.7943 16.8286 44.8587 20.7722 44.8587 24.9743Z" fill="#00D3D0"/>
<path d="M134.07 30.8824V48.3443H125.69V30.9019C125.69 26.0804 121.939 22.1709 117.31 22.1709C112.682 22.1709 108.931 26.0804 108.931 30.9019V48.3443H100.552V1.60522H108.931V15.7576C111.396 14.272 114.258 13.4214 117.31 13.4214C120.362 13.4214 123.225 14.272 125.69 15.7576C130.699 18.7765 134.07 24.4193 134.07 30.8824Z" fill="white"/>
<path d="M92.1732 48.3434V48.3444H50.2766V48.3434L71.2244 24.9744L92.1732 48.3434Z" fill="white"/>
<path d="M92.1748 48.3441H92.173" stroke="#179900" stroke-width="0.0512638" stroke-miterlimit="10"/>
<path d="M92.1732 1.60522L81.5813 13.4214L71.2244 24.9743L50.2766 48.3443V1.60522H92.1732Z" fill="#00D3D0"/>
<path d="M71.2244 24.9743L50.2766 48.3433V1.60522L60.8684 13.4214L71.2244 24.9743Z" fill="#00D3D0"/>
<path d="M50.2769 48.3441H50.2752" stroke="#179900" stroke-width="0.0512638" stroke-miterlimit="10"/>
<path d="M72.496 26.3927L50.2936 48.325L71.2247 24.9755L72.496 26.3927Z" fill="#00D3D0" fill-opacity="0.11"/>
</svg>
