<svg xmlns="http://www.w3.org/2000/svg" width="134" height="134" viewBox="0 0 134 134" fill="none">
  <path d="M132.847 98.4552L119.577 91.82L111.131 69.8509C111.032 69.5911 110.88 69.3547 110.685 69.1563C110.49 68.9579 110.256 68.8018 109.998 68.6978L57.5941 47.7503C57.2277 47.6044 56.8266 47.5688 56.4403 47.6479C56.0539 47.727 55.6991 47.9172 55.4194 48.1953L48.4302 55.1846C48.1558 55.4645 47.9686 55.818 47.8914 56.2023C47.8142 56.5866 47.8503 56.985 47.9952 57.3491L68.9428 109.753C69.0468 110.011 69.2028 110.245 69.4012 110.44C69.5996 110.635 69.8361 110.787 70.0958 110.886L92.065 119.332L98.7002 132.602C98.8399 132.895 99.0479 133.15 99.3067 133.345C99.5655 133.541 99.8674 133.671 100.187 133.725C100.295 133.735 100.403 133.735 100.511 133.725C101.046 133.723 101.559 133.508 101.937 133.128L133.373 101.692C133.605 101.469 133.78 101.194 133.883 100.889C133.987 100.585 134.017 100.26 133.97 99.9421C133.916 99.6224 133.786 99.3205 133.59 99.0617C133.395 98.803 133.14 98.595 132.847 98.4552ZM52.2333 57.0861L53.356 55.9735L79.4418 82.0593C77.7227 84.4954 76.9802 87.4878 77.3612 90.4449C77.7422 93.402 79.219 96.1086 81.4994 98.0293C83.7799 99.95 86.6981 100.945 89.6769 100.818C92.6558 100.69 95.4784 99.45 97.5867 97.3417C99.695 95.2335 100.935 92.4108 101.063 89.432C101.19 86.4531 100.195 83.5349 98.2742 81.2545C96.3535 78.974 93.647 77.4972 90.6899 77.1162C87.7328 76.7352 84.7403 77.4777 82.3043 79.1969L56.2185 53.1111L57.3311 51.9883L107.672 72.1267L115.612 92.7809L93.0259 115.367L72.3717 107.427L52.2333 57.0861ZM89.162 81.058C90.9801 81.0607 92.7411 81.6936 94.1448 82.849C95.5486 84.0044 96.5083 85.6108 96.8606 87.3945C97.2128 89.1781 96.9357 91.0287 96.0766 92.631C95.2174 94.2333 93.8293 95.4881 92.1487 96.1818C90.4681 96.8754 88.599 96.9649 86.8598 96.435C85.1207 95.9051 83.619 94.7887 82.6107 93.2758C81.6023 91.7629 81.1497 89.9472 81.3299 88.1381C81.5101 86.3289 82.312 84.6382 83.599 83.354C85.0759 81.8818 87.0767 81.056 89.162 81.058ZM101.067 128.283L96.0097 118.169L118.394 95.785L128.508 100.842L101.067 128.283Z" fill="white"/>
  <path d="M43.1906 112.484C42.8037 112.118 42.2916 111.915 41.7593 111.915C41.227 111.915 40.7149 112.118 40.3281 112.484L37.759 115.053C30.903 105.748 27.1208 94.536 26.9395 82.9794C26.7582 71.4228 30.1868 60.0975 36.7475 50.582C38.7131 51.6636 40.9762 52.0791 43.1978 51.7662C45.4194 51.4533 47.4797 50.4289 49.0701 48.8465C50.6605 47.2641 51.6953 45.2089 52.0193 42.9889C52.3434 40.7689 51.9393 38.5037 50.8676 36.5327C60.3831 29.972 71.7084 26.5434 83.2649 26.7247C94.8215 26.9061 106.034 30.6882 115.339 37.5442L112.729 40.083C112.353 40.4623 112.142 40.975 112.142 41.5092C112.141 41.7754 112.192 42.0393 112.293 42.2858C112.393 42.5322 112.542 42.7564 112.729 42.9454L121.65 51.7958C122.029 52.1726 122.542 52.3841 123.076 52.3841C123.611 52.3841 124.124 52.1726 124.503 51.7958L133.373 42.9252C133.561 42.7373 133.71 42.5142 133.812 42.2686C133.914 42.0231 133.966 41.7598 133.966 41.494C133.966 41.2281 133.914 40.9649 133.812 40.7193C133.71 40.4737 133.561 40.2506 133.373 40.0628L124.503 31.1922C124.124 30.8154 123.611 30.6039 123.076 30.6039C122.542 30.6039 122.029 30.8154 121.65 31.1922L118.221 34.6008C109.771 28.2417 99.7795 24.2464 89.2741 23.0252C78.7688 21.804 68.1277 23.4009 58.4435 27.652L70.1058 16.0201C71.4281 16.652 72.9315 16.795 74.3492 16.4238C75.767 16.0526 77.0074 15.1913 77.8505 13.9925C78.6936 12.7938 79.0848 11.3351 78.9548 9.87538C78.8247 8.41563 78.1818 7.04914 77.14 6.01832C76.0983 4.98751 74.7251 4.35902 73.264 4.24436C71.803 4.12969 70.3486 4.53626 69.1588 5.39194C67.969 6.24761 67.1207 7.49708 66.7645 8.91867C66.4083 10.3403 66.5672 11.8421 67.213 13.1577L47.5298 32.8712C45.5313 31.5306 43.1293 30.9255 40.7342 31.1592C38.3391 31.3929 36.0994 32.451 34.3977 34.1526C32.6961 35.8543 31.638 38.0939 31.4043 40.4891C31.1706 42.8842 31.7757 45.2861 33.1163 47.2846L13.4028 66.9678C12.082 66.3243 10.5759 66.1698 9.15199 66.5318C7.72809 66.8939 6.47865 67.749 5.62569 68.9452C4.77274 70.1415 4.37151 71.6014 4.49331 73.0656C4.61511 74.5297 5.25204 75.9033 6.29092 76.9422C7.32981 77.9811 8.70337 78.618 10.1675 78.7398C11.6317 78.8616 13.0916 78.4604 14.2878 77.6074C15.4841 76.7544 16.3392 75.505 16.7013 74.0811C17.0633 72.6572 16.9088 71.1511 16.2652 69.8303L27.9275 58.1984C23.6722 67.8799 22.0702 78.5196 23.286 89.0249C24.5019 99.5302 28.4917 109.523 34.8459 117.976L31.4272 121.405C31.0504 121.784 30.8389 122.297 30.8389 122.831C30.8389 123.366 31.0504 123.878 31.4272 124.257L40.2978 133.128C40.6754 133.508 41.1883 133.723 41.7239 133.725C41.9909 133.725 42.2552 133.672 42.5017 133.57C42.7482 133.468 42.972 133.317 43.1602 133.128L52.0409 124.257C52.4177 123.878 52.6292 123.366 52.6292 122.831C52.6292 122.297 52.4177 121.784 52.0409 121.405L43.1906 112.484ZM123.097 35.4606L129.105 41.4687L123.097 47.4768L117.089 41.4687L123.097 35.4606ZM71.2588 8.93984C71.5594 8.63678 71.9433 8.42985 72.3617 8.3453C72.7801 8.26075 73.2141 8.30239 73.6088 8.46493C74.0035 8.62748 74.341 8.90361 74.5785 9.25828C74.8161 9.61296 74.9429 10.0302 74.9429 10.457C74.9429 10.8839 74.8161 11.3011 74.5785 11.6558C74.341 12.0105 74.0035 12.2866 73.6088 12.4491C73.2141 12.6117 72.7801 12.6533 72.3617 12.5688C71.9433 12.4842 71.5594 12.2773 71.2588 11.9742C71.0594 11.7751 70.9012 11.5386 70.7933 11.2783C70.6854 11.0179 70.6298 10.7389 70.6298 10.457C70.6298 10.1752 70.6854 9.89616 70.7933 9.63583C70.9012 9.37549 71.0594 9.13899 71.2588 8.93984ZM37.2735 37.0283C37.8609 36.4381 38.5591 35.9697 39.3281 35.6502C40.097 35.3306 40.9215 35.166 41.7543 35.166C42.587 35.166 43.4115 35.3306 44.1805 35.6502C44.9494 35.9697 45.6477 36.4381 46.2351 37.0283C47.123 37.9149 47.7281 39.0449 47.9736 40.2754C48.2191 41.5059 48.0941 42.7815 47.6144 43.9409C47.1347 45.1004 46.3218 46.0914 45.2787 46.7888C44.2356 47.4861 43.009 47.8583 41.7543 47.8583C40.4995 47.8583 39.273 47.4861 38.2298 46.7888C37.1867 46.0914 36.3738 45.1004 35.8941 43.9409C35.4144 42.7815 35.2894 41.5059 35.535 40.2754C35.7805 39.0449 36.3855 37.9149 37.2735 37.0283ZM12.2295 74.0481C11.8165 74.3925 11.2896 74.5701 10.7524 74.5458C10.2152 74.5215 9.7065 74.2972 9.32625 73.917C8.946 73.5367 8.7217 73.028 8.69743 72.4908C8.67316 71.9536 8.85066 71.4267 9.19507 71.0137C9.59987 70.6159 10.1447 70.393 10.7123 70.393C11.2798 70.393 11.8247 70.6159 12.2295 71.0137C12.4289 71.2129 12.5871 71.4494 12.695 71.7097C12.8029 71.9701 12.8585 72.2491 12.8585 72.5309C12.8585 72.8128 12.8029 73.0918 12.695 73.3521C12.5871 73.6125 12.4289 73.849 12.2295 74.0481ZM41.7543 128.799L35.7461 122.791L41.7543 116.783L47.7624 122.791L41.7543 128.799Z" fill="white"/>
  <g opacity="0.5" filter="url(#filter0_f_6_145)">
    <circle cx="38.3863" cy="38.1413" r="30.8498" fill="#00D3D0"/>
  </g>
  <defs>
    <filter id="filter0_f_6_145" x="0.279258" y="0.0343242" width="76.214" height="76.2139" filterUnits="userSpaceOnUse" color-interpolation-filters="sRGB">
      <feFlood flood-opacity="0" result="BackgroundImageFix"/>
      <feBlend mode="normal" in="SourceGraphic" in2="BackgroundImageFix" result="shape"/>
      <feGaussianBlur stdDeviation="3.62859" result="effect1_foregroundBlur_6_145"/>
    </filter>
  </defs>
</svg>