<svg xmlns="http://www.w3.org/2000/svg" width="110" height="110" viewBox="0 0 110 110" fill="none">
  <path d="M106.628 92.1017L93.1031 76.886C92.137 75.7991 90.8087 75.1953 89.3596 75.0746C87.9105 74.9538 86.4613 75.4369 85.3745 76.4029L83.0801 78.4558L78.0082 72.6594C89.3596 61.6703 93.4654 45.3678 88.635 30.2728L98.8996 20.0083L101.677 22.7857C102.16 23.2688 102.885 23.3895 103.488 23.2688C104.092 23.0272 104.575 22.5442 104.696 21.8197L107.715 2.98117C107.836 2.37738 107.594 1.77358 107.232 1.4113C106.87 1.04902 106.266 0.807504 105.662 0.928264L86.9444 3.94725C86.2198 4.06801 85.7368 4.55105 85.4953 5.15485C85.2538 5.75864 85.4953 6.4832 85.9783 6.96624L88.7558 9.74371L81.5102 16.8685C81.1479 16.3855 80.6649 15.9024 80.3026 15.4194C65.2077 -1.60768 39.0029 -3.29832 21.855 11.7966C19.5606 13.8495 17.6284 16.0232 15.9378 18.3176C14.2472 20.6121 15.817 18.4384 15.817 18.4384C13.5226 21.5781 11.7112 25.0802 10.3829 28.7029C10.2621 29.186 10.1413 29.4275 10.1413 29.669C6.27705 41.1412 7.48464 54.0624 14.1264 64.81H2.29198C1.32591 64.6893 0.480591 65.5346 0.480591 66.5007V102.487C0.480591 103.453 1.32591 104.298 2.29198 104.298H63.6378C64.6039 104.298 65.4492 103.453 65.4492 102.487V80.871C68.9512 79.4219 72.3325 77.369 75.3515 74.9538L80.4234 80.7503L78.1289 82.8032C77.0421 83.7693 76.4383 85.0976 76.3176 86.5467C76.1968 87.9958 76.6798 89.445 77.6459 90.5318L91.171 105.747C93.2239 108.042 96.0013 109.25 98.8996 109.25C101.315 109.25 103.73 108.404 105.662 106.714C107.715 104.902 108.923 102.366 109.043 99.7095C109.285 96.8113 108.44 94.1546 106.628 92.1017ZM92.6201 8.53611L91.0502 6.96624L103.971 4.91333L101.919 17.8346L100.349 16.2647C99.6241 15.5402 98.5373 15.5402 97.8127 16.2647L85.3745 28.4614L65.8115 48.0245L56.03 38.2429C55.3054 37.5184 54.2186 37.5184 53.494 38.2429L38.1576 53.4586L14.0057 29.4275C14.851 27.0123 16.0586 24.7179 17.3869 22.665L36.8292 42.1072C37.5538 42.8318 38.6406 42.8318 39.3651 42.1072L54.7016 26.8916L64.4831 36.6731C65.2077 37.3976 66.2945 37.3976 67.0191 36.6731L92.4993 11.3136C92.8616 10.9513 92.9824 10.4683 92.9824 9.98522C92.9824 9.50219 92.8616 8.89839 92.6201 8.53611ZM24.2702 14.6948C39.8482 0.928265 63.7586 2.37738 77.5251 17.9553C78.0082 18.4384 78.4912 19.0422 78.8535 19.646L65.8115 32.688L56.03 22.9065C55.3054 22.1819 54.2186 22.1819 53.494 22.9065L38.1576 38.1222L19.5606 19.646C21.0097 17.8346 22.5796 16.144 24.2702 14.6948ZM61.8264 100.676H4.10338V68.312H61.8264V100.676ZM63.6378 64.6893H18.4738C11.832 55.3908 10.0206 43.7979 12.7981 33.2918L36.8292 57.3229C37.1915 57.6852 37.6745 57.806 38.1576 57.806C38.6406 57.806 39.1236 57.6852 39.4859 57.3229L54.8224 42.1072L64.6039 51.8888C65.3284 52.6133 66.4153 52.6133 67.1398 51.8888L85.8575 33.2918C89.4803 47.0584 85.133 61.6703 74.3854 71.2103C71.7287 73.6255 68.7097 75.5576 65.57 77.0067V66.6214C65.4492 65.5346 64.6039 64.6893 63.6378 64.6893ZM103.368 103.936C100.59 106.351 96.3636 106.11 93.9484 103.332L80.4234 87.9958C80.0611 87.6336 79.9403 87.1505 79.9403 86.6675C79.9403 86.1844 80.1819 85.7014 80.5441 85.4599L87.7897 79.0596C88.152 78.8181 88.5143 78.5766 88.9973 78.5766H89.1181C89.6011 78.5766 90.0841 78.8181 90.3257 79.1804L103.851 94.5169C105.058 95.8452 105.541 97.5358 105.541 99.3472C105.421 101.159 104.575 102.729 103.368 103.936Z" fill="white"/>
  <path d="M8.93388 80.2671C8.93388 83.6484 11.7114 86.3051 14.9719 86.3051H15.9379C17.2663 86.3051 18.3531 87.3919 18.3531 88.7203C18.3531 90.0486 17.2663 91.1355 15.9379 91.1355H10.7453C9.7792 91.1355 8.93388 91.9808 8.93388 92.9469C8.93388 93.913 9.7792 94.7583 10.7453 94.7583H15.9379C19.3192 94.7583 21.9759 92.1016 21.9759 88.7203C21.9759 85.339 19.1984 82.6823 15.9379 82.6823H14.9719C13.6435 82.6823 12.5567 81.5955 12.5567 80.2671C12.5567 78.9388 13.6435 77.8519 14.9719 77.8519H20.1645C21.1306 77.8519 21.9759 77.0066 21.9759 76.0405C21.9759 75.0745 21.1306 74.2292 20.1645 74.2292H14.9719C11.7114 74.2292 8.93388 76.8859 8.93388 80.2671ZM28.2554 94.7583H37.6746C38.6407 94.7583 39.486 93.913 39.486 92.9469C39.486 91.9808 38.6407 91.1355 37.6746 91.1355H30.0668V86.3051H37.6746C38.6407 86.3051 39.486 85.4598 39.486 84.4937C39.486 83.5276 38.6407 82.6823 37.6746 82.6823H30.0668V77.8519H37.6746C38.6407 77.8519 39.486 77.0066 39.486 76.0405C39.486 75.0745 38.6407 74.2292 37.6746 74.2292H28.2554C27.2893 74.2292 26.444 75.0745 26.444 76.0405V92.9469C26.444 93.913 27.2893 94.7583 28.2554 94.7583ZM50.4751 94.7583C54.0979 94.7583 56.9962 91.86 56.9962 88.2373V80.6294C56.9962 77.0066 54.0979 74.1084 50.4751 74.1084C46.8524 74.1084 43.9541 77.0066 43.9541 80.6294V88.2373C43.9541 91.86 46.8524 94.7583 50.4751 94.7583ZM47.5769 80.7502C47.5769 79.1803 48.9053 77.8519 50.4751 77.8519C52.045 77.8519 53.3734 79.1803 53.3734 80.7502V88.358C53.3734 89.9279 52.045 91.2562 50.4751 91.2562C48.9053 91.2562 47.5769 89.9279 47.5769 88.358V80.7502Z" fill="white"/>
</svg>