<svg xmlns="http://www.w3.org/2000/svg" width="175" height="154" viewBox="0 0 175 154" fill="none">
  <g opacity="0.5" filter="url(#filter0_f_6_139)">
    <path d="M95.5185 48.3366C95.5185 66.299 111.116 80.8582 130.355 80.8582C135.376 80.8582 140.148 79.8682 144.459 78.08C146.156 82.2381 148.656 86.0001 152.219 88.7535C154.074 90.189 158.211 92.893 164.557 92.9239C163.113 91.4946 159.472 87.4851 157.899 80.5922C156.857 76.032 157.16 72.1091 157.472 69.8878C163.247 64.1457 166.774 56.3494 166.774 47.7364C166.774 30.1081 151.901 15.8149 133.555 15.8149C133.034 15.8149 132.513 15.8273 131.992 15.8521C131.451 15.8273 130.906 15.8149 130.355 15.8149C111.116 15.8149 95.5185 30.3742 95.5185 48.3366Z" fill="#00D3D0"/>
  </g>
  <path d="M32.2162 98.392C26.2733 99.4942 20.6176 101.796 15.5944 105.158C17.803 97.3875 22.6226 90.6156 29.2411 85.9835C29.735 85.6377 30.0797 85.1177 30.2059 84.5282C30.332 83.9386 30.2303 83.3232 29.9211 82.8056C14.0985 56.9745 33.6071 22.3494 64.0141 22.7288C69.4728 22.7039 74.8769 23.8162 79.882 25.9949C84.8872 28.1736 89.3837 31.3709 93.0851 35.3831C93.5166 35.8469 94.1147 36.1203 94.7478 36.1431C95.3809 36.1659 95.9972 35.9363 96.461 35.5047C96.9248 35.0732 97.1982 34.4751 97.221 33.842C97.2438 33.2089 97.0142 32.5926 96.5827 32.1288C60.2613 -5.05622 1.48476 36.9362 24.7606 83.3662C20.5548 86.6781 17.0522 90.7958 14.4577 95.4784C11.8633 100.161 10.2293 105.314 9.65135 110.636C9.59578 111.116 9.68709 111.601 9.9132 112.028C10.1393 112.454 10.4896 112.802 10.9177 113.026C11.3458 113.249 11.8317 113.337 12.311 113.279C12.7903 113.22 13.2406 113.017 13.6022 112.697C19.098 107.781 25.8319 104.458 33.0775 103.087C35.2205 102.694 37.393 102.484 39.5716 102.46C39.8854 102.457 40.1954 102.392 40.484 102.269C40.7725 102.146 41.034 101.967 41.2534 101.742C41.4728 101.518 41.6458 101.253 41.7625 100.962C41.8792 100.67 41.9374 100.359 41.9336 100.045C41.6187 95.9179 34.8955 98.2703 32.2162 98.392Z" fill="white"/>
  <path d="M136.106 114.276C133.875 111.149 131.205 108.359 128.18 105.991C131.607 99.544 133.402 92.3559 133.408 85.0552C130.969 26.0783 46.9128 26.0568 44.465 85.0552C44.4834 92.5146 46.3742 99.85 49.964 106.389C53.5539 112.928 58.7278 118.461 65.0114 122.481C71.295 126.501 78.4873 128.879 85.9287 129.397C93.3701 129.915 100.823 128.557 107.603 125.447C118.503 123.261 133.489 129.3 139.353 135.329C139.785 135.717 140.347 135.93 140.928 135.925C146.84 136.161 139.973 119.251 136.106 114.276ZM120.708 121.028C115.812 120.098 110.787 120.082 105.885 120.981C100.586 123.479 94.7948 124.761 88.9362 124.731C78.4133 124.725 68.3228 120.543 60.8797 113.105C53.4367 105.666 49.2492 95.5781 49.2366 85.0552C51.4148 32.3959 126.458 32.4006 128.636 85.0552C128.628 92.2311 126.69 99.2728 123.025 105.442C122.717 105.96 122.617 106.576 122.746 107.165C122.874 107.754 123.221 108.272 123.716 108.615C130.347 113.245 135.171 120.026 137.37 127.809C132.337 124.437 126.666 122.128 120.708 121.028Z" fill="white"/>
  <path d="M86.2616 86.1766C86.2616 87.0884 86.6238 87.9628 87.2686 88.6076C87.9133 89.2523 88.7877 89.6145 89.6995 89.6145C90.6113 89.6145 91.4858 89.2523 92.1305 88.6076C92.7753 87.9628 93.1375 87.0884 93.1375 86.1766C93.1375 85.2648 92.7753 84.3903 92.1305 83.7456C91.4858 83.1009 90.6113 82.7386 89.6995 82.7386C88.7877 82.7386 87.9133 83.1009 87.2686 83.7456C86.6238 84.3903 86.2616 85.2648 86.2616 86.1766ZM107.221 86.1766C107.221 87.0884 107.583 87.9628 108.228 88.6076C108.873 89.2523 109.747 89.6145 110.659 89.6145C111.571 89.6145 112.445 89.2523 113.09 88.6076C113.735 87.9628 114.097 87.0884 114.097 86.1766C114.097 85.2648 113.735 84.3903 113.09 83.7456C112.445 83.1009 111.571 82.7386 110.659 82.7386C109.747 82.7386 108.873 83.1009 108.228 83.7456C107.583 84.3903 107.221 85.2648 107.221 86.1766ZM65.3024 86.1766C65.3024 87.0884 65.6646 87.9628 66.3093 88.6076C66.9541 89.2523 67.8285 89.6145 68.7403 89.6145C69.6521 89.6145 70.5266 89.2523 71.1713 88.6076C71.816 87.9628 72.1782 87.0884 72.1782 86.1766C72.1782 85.2648 71.816 84.3903 71.1713 83.7456C70.5266 83.1009 69.6521 82.7386 68.7403 82.7386C67.8285 82.7386 66.9541 83.1009 66.3093 83.7456C65.6646 84.3903 65.3024 85.2648 65.3024 86.1766Z" fill="white"/>
  <defs>
    <filter id="filter0_f_6_139" x="88.2613" y="8.55776" width="85.7702" height="91.6234" filterUnits="userSpaceOnUse" color-interpolation-filters="sRGB">
      <feFlood flood-opacity="0" result="BackgroundImageFix"/>
      <feBlend mode="normal" in="SourceGraphic" in2="BackgroundImageFix" result="shape"/>
      <feGaussianBlur stdDeviation="3.62859" result="effect1_foregroundBlur_6_139"/>
    </filter>
  </defs>
</svg>