<svg xmlns="http://www.w3.org/2000/svg" width="171" height="191" viewBox="0 0 171 191" fill="none">
  <path d="M169.158 133.068L153.192 93.6216C152.702 92.4082 151.787 91.4716 150.574 90.9607C149.36 90.471 148.019 90.4923 146.827 91.0245L134.395 96.5593C132.288 97.4534 131.159 99.7525 131.606 101.945L128.307 103.797C127.2 104.436 125.859 104.67 124.56 104.5L101.633 101.115C99.6509 100.834 97.6307 101.005 95.7244 101.617C93.8181 102.229 92.0754 103.266 90.6275 104.649L88.9457 106.267H76.2157C75.6409 106.267 75.0661 106.054 74.6404 105.67L73.5121 104.713C74.2998 102.775 73.7676 100.519 72.0646 99.1777L62.4425 91.578C61.4207 90.7691 60.1434 90.4072 58.8449 90.5988C57.5676 90.7691 56.3968 91.4716 55.6304 92.4934L32.4481 123.914C30.9154 125.979 31.2773 128.874 33.3209 130.513L42.9217 138.092C43.427 138.492 44.0084 138.785 44.6305 138.953C45.2527 139.121 45.9025 139.161 46.5406 139.071C47.1755 138.987 47.7865 138.774 48.3358 138.444C48.885 138.114 49.3608 137.676 49.7337 137.155L49.8189 137.049L51.2026 138.092C52.0115 138.666 52.4798 139.646 52.4798 140.668V146.394L48.9035 150.992C45.7104 155.143 46.4341 161.125 50.564 164.318C52.2457 165.638 54.2893 166.341 56.3968 166.341C56.78 166.341 57.1844 166.319 57.5676 166.277C57.9934 166.213 58.3978 166.106 58.8023 166C58.8023 166.128 58.781 166.234 58.781 166.362C58.781 169.087 60.0157 171.641 62.1445 173.387C63.8049 174.707 65.806 175.367 67.7857 175.367C69.0204 175.367 70.2551 175.09 71.4046 174.6V174.707C71.7027 176.942 72.8735 178.922 74.5765 180.178L74.9597 180.476C76.7308 181.79 78.9508 182.349 81.1331 182.03C82.0485 181.902 82.8787 181.583 83.6877 181.178C84.1347 183.456 85.4333 185.414 87.3704 186.649L87.6472 186.841C88.5746 187.455 89.6157 187.877 90.7089 188.081C91.8022 188.286 92.9254 188.27 94.0122 188.033C96.2474 187.564 98.142 186.245 99.398 184.329L99.7599 183.775C101.271 184.925 103.081 185.521 105.018 185.521C107.296 185.521 109.531 184.584 111.149 182.988C112.081 182.055 112.79 180.923 113.221 179.676C113.653 178.43 113.796 177.102 113.639 175.792C114.939 175.982 116.266 175.857 117.507 175.428C118.749 175 119.87 174.281 120.777 173.33C121.683 172.38 122.349 171.226 122.718 169.966C123.088 168.705 123.15 167.374 122.9 166.085C125.731 166.255 128.52 165.127 130.436 162.849C131.309 161.817 131.942 160.604 132.288 159.296C132.635 157.989 132.685 156.621 132.437 155.292C135.012 155.569 137.631 154.675 139.547 152.802C141.654 150.694 142.442 147.714 141.867 144.904C141.973 144.882 142.08 144.904 142.186 144.882L149.041 143.925C149.914 144.712 151.085 145.159 152.255 145.159C152.915 145.159 153.575 145.031 154.193 144.733L166.667 139.22C169.009 138.198 170.116 135.473 169.158 133.068ZM46.0297 135.452C45.8793 135.474 45.7258 135.465 45.5792 135.425C45.4326 135.385 45.296 135.314 45.1782 135.218L35.62 127.661C35.3917 127.479 35.2422 127.216 35.2026 126.926C35.1629 126.637 35.2362 126.343 35.4071 126.107L58.5681 94.6221C58.8023 94.3028 59.1216 94.2177 59.3132 94.1964H59.4622C59.6538 94.1964 59.9093 94.239 60.1434 94.4306L69.7868 102.03C70.2551 102.392 70.3403 103.073 69.9996 103.52L69.7016 103.925L69.6378 103.989L56.3116 122.041L56.2691 122.083L53.7358 125.532L47.9243 133.408C47.903 133.43 47.903 133.451 47.903 133.451L46.7534 135.026C46.5406 135.324 46.2425 135.431 46.0297 135.452ZM57.1419 162.636C56.3819 162.731 55.6108 162.674 54.8728 162.47C54.1349 162.265 53.4446 161.917 52.8417 161.444C50.3298 159.486 49.8615 155.803 51.8412 153.249L58.6959 144.414C59.8454 142.924 61.5697 142.158 63.3153 142.158C64.55 142.158 65.806 142.562 66.8704 143.371C68.2966 144.499 69.1269 146.181 69.1269 147.99C69.1269 149.289 68.7011 150.524 67.8922 151.588L61.0375 160.423C60.0583 161.657 58.6746 162.445 57.1419 162.636ZM64.4648 170.534C63.1876 169.491 62.4638 167.98 62.4638 166.362C62.4638 165.191 62.8683 164.041 63.6559 163.041L70.4893 154.228C71.3621 153.078 72.6393 152.376 74.0656 152.205C74.2785 152.163 74.4914 152.163 74.6829 152.163C75.8964 152.163 77.0885 152.589 78.1954 153.483C80.4945 155.335 80.8564 158.719 79.0044 161.019L72.0007 169.747C71.0955 170.835 69.8009 171.526 68.393 171.673C66.9851 171.821 65.5755 171.412 64.4648 170.534ZM80.5796 178.389C79.345 178.56 78.1316 178.262 77.2588 177.623L76.8969 177.325C76.3962 176.959 75.9756 176.494 75.6608 175.96C75.346 175.425 75.1436 174.832 75.0661 174.217C74.9832 173.592 75.0273 172.957 75.1955 172.35C75.3638 171.743 75.6528 171.176 76.0454 170.683L81.2396 164.254C81.6745 163.714 82.2257 163.278 82.8522 162.979C83.4788 162.681 84.1645 162.527 84.8585 162.53C85.8164 162.53 86.7957 162.828 87.6046 163.445C88.7754 164.318 89.4566 165.681 89.4566 167.149C89.4566 168.107 89.1799 169.001 88.6477 169.768C88.6051 169.81 88.5838 169.874 88.5413 169.938C88.52 169.959 88.52 169.981 88.4987 169.981L88.4135 170.108L83.5812 176.58C82.9 177.58 81.8143 178.219 80.5796 178.389ZM98.7381 178.538L96.29 182.349C95.5875 183.435 94.5018 184.18 93.2246 184.456C91.9686 184.712 90.6913 184.478 89.6482 183.796L89.3715 183.605C88.2432 182.881 87.4982 181.753 87.264 180.454C87.0298 179.156 87.3066 177.857 88.0942 176.771C89.3715 175.09 90.819 173.216 91.3938 172.514C91.5003 172.408 91.6067 172.28 91.7131 172.195C91.7344 172.195 91.7344 172.173 91.7344 172.173C91.7557 172.152 91.7983 172.131 91.8196 172.109C91.926 172.024 92.0112 171.939 92.1815 171.833C93.778 170.875 95.7791 170.875 97.3331 171.875C98.6955 172.748 99.5257 174.281 99.5257 175.941C99.5044 176.878 99.249 177.772 98.7381 178.538ZM136.95 150.204C135.204 151.929 132.373 152.142 130.414 150.715L118.174 141.668L113.405 138.134C113.011 137.848 112.521 137.728 112.039 137.8C111.558 137.872 111.123 138.129 110.83 138.517C110.233 139.326 110.404 140.476 111.213 141.093L119.557 147.267L126.625 152.503C127.86 153.419 128.647 154.76 128.839 156.293C129.031 157.825 128.583 159.316 127.583 160.508C126.689 161.555 125.437 162.232 124.071 162.405C122.705 162.579 121.323 162.236 120.196 161.444L105.529 150.949C105.334 150.807 105.113 150.706 104.878 150.65C104.643 150.595 104.4 150.586 104.162 150.626C103.924 150.666 103.697 150.752 103.493 150.881C103.289 151.01 103.113 151.178 102.974 151.375C102.378 152.205 102.57 153.355 103.4 153.93L117.429 163.956C118.514 164.744 119.196 165.957 119.323 167.277C119.43 168.618 118.961 169.917 118.003 170.875C116.407 172.493 113.831 172.642 112.022 171.279L98.1846 160.508C97.9947 160.359 97.7774 160.249 97.545 160.185C97.3125 160.12 97.0697 160.102 96.8303 160.132C96.591 160.162 96.3598 160.238 96.1502 160.358C95.9406 160.477 95.7566 160.636 95.6088 160.827C94.9914 161.615 95.1192 162.785 95.9068 163.403L107.998 172.855C109.148 173.749 109.872 175.09 109.957 176.537C110.063 178.006 109.531 179.39 108.488 180.433C106.785 182.136 103.911 182.328 101.995 180.944C101.995 180.944 101.889 180.816 101.74 180.667L101.782 180.603C102.676 179.241 103.145 177.644 103.145 175.963C103.145 173.046 101.697 170.385 99.2703 168.81C97.4182 167.618 95.2043 167.256 93.0968 167.639C93.0968 167.49 93.1181 167.341 93.1181 167.192C93.1181 164.531 91.9047 162.104 89.7972 160.529C87.9665 159.167 85.7739 158.656 83.6877 158.954C84.1134 155.888 82.9852 152.674 80.3242 150.524C79.3925 149.761 78.3165 149.195 77.1606 148.858C76.0046 148.522 74.7926 148.422 73.5973 148.565C73.278 148.608 72.9799 148.693 72.6819 148.757C72.7032 148.501 72.7458 148.267 72.7458 148.012C72.7458 145.053 71.4259 142.328 69.0843 140.497C65.5718 137.772 60.7395 137.921 57.376 140.561C57.376 140.54 57.376 140.54 57.3973 140.518C57.3547 140.561 57.3122 140.604 57.2696 140.625C57.0567 140.795 56.8438 141.008 56.6522 141.2C56.4819 141.37 56.2904 141.519 56.1201 141.711V140.689C56.1201 138.475 55.077 136.41 53.3526 135.154L51.9477 134.111L54.6299 130.471L58.0147 125.873L59.079 124.446C59.1429 124.382 59.1855 124.319 59.2493 124.255L71.4046 107.757L72.1923 108.417C73.278 109.375 74.7042 109.907 76.1731 109.907H85.0714L79.9623 114.803C78.7702 115.952 78.1103 117.506 78.1103 119.167C78.1103 121.551 79.4301 123.659 81.5802 124.659C84.1759 125.896 87.0241 126.511 89.8988 126.455C92.7736 126.4 95.5959 125.676 98.142 124.34L100.356 123.19C102.442 122.083 104.997 122.339 106.849 123.829L128.456 141.136C129.712 142.115 131.032 142.924 132.394 143.52C132.841 143.712 133.331 143.903 133.756 144.052C134.14 144.201 134.544 144.329 134.885 144.414C135.353 144.563 135.821 144.67 136.226 144.733C136.779 144.84 137.311 144.925 137.758 144.946C137.971 144.968 138.163 144.968 138.376 144.989L138.142 145.053C138.738 146.82 138.312 148.842 136.95 150.204ZM141.675 141.264C140.973 141.349 140.207 141.391 139.334 141.37C138.972 141.37 138.631 141.349 138.142 141.285C137.716 141.264 137.333 141.178 136.864 141.093C136.531 141.046 136.203 140.968 135.885 140.859C135.587 140.795 135.31 140.689 135.034 140.582C134.65 140.455 134.246 140.284 133.884 140.135C132.82 139.667 131.755 139.028 130.755 138.241L110.255 121.807L109.148 120.934C107.402 119.529 105.273 118.805 103.123 118.805C101.591 118.805 100.058 119.167 98.6742 119.912L96.4603 121.062C94.4227 122.135 92.1622 122.718 89.8595 122.762C87.5567 122.806 85.2755 122.311 83.198 121.317C82.1975 120.849 81.8356 119.891 81.8356 119.146C81.8356 118.699 81.9634 118.017 82.5594 117.443L93.182 107.267C95.2682 105.266 98.2272 104.308 101.101 104.734L124.049 108.119C126.157 108.417 128.328 108.012 130.116 106.99L132.926 105.415L137.439 116.57L147.146 140.497L141.675 141.264ZM165.177 135.899L152.681 141.413C152.192 141.625 151.596 141.455 151.234 140.838L137.95 108.033L136.226 103.818L135.247 101.392C135.012 100.838 135.268 100.2 135.843 99.9441L148.317 94.4093C148.594 94.2815 148.913 94.2815 149.19 94.388C149.467 94.4944 149.68 94.7073 149.786 95.0053L165.752 134.473C165.965 135.005 165.709 135.644 165.177 135.899Z" fill="white"/>
  <g opacity="0.5" filter="url(#filter0_f_6_157)">
    <path d="M63.9466 139.227C63.9466 139.227 63.9466 73.4582 120.576 73.4582C63.9466 73.4582 63.9466 7.68884 63.9466 7.68884C63.9466 7.68884 63.9466 73.4582 7.31689 73.4582C63.9466 73.4582 63.9466 139.227 63.9466 139.227Z" fill="#00D3D0"/>
  </g>
  <defs>
    <filter id="filter0_f_6_157" x="0.0597148" y="0.431663" width="127.774" height="146.053" filterUnits="userSpaceOnUse" color-interpolation-filters="sRGB">
      <feFlood flood-opacity="0" result="BackgroundImageFix"/>
      <feBlend mode="normal" in="SourceGraphic" in2="BackgroundImageFix" result="shape"/>
      <feGaussianBlur stdDeviation="3.62859" result="effect1_foregroundBlur_6_157"/>
    </filter>
  </defs>
</svg>